<mxfile host="app.diagrams.net" modified="2024-02-14T14:18:21.045Z" agent="Mozilla/5.0 (X11; Ubuntu; Linux x86_64; rv:109.0) Gecko/20100101 Firefox/118.0" etag="8rKd-IV9PnwVzMikg_nW" version="23.1.4" type="device">
  <diagram name="Page-1" id="NdiCMHzT2zJNHydEtQxd">
    <mxGraphModel dx="795" dy="766" grid="1" gridSize="10" guides="1" tooltips="1" connect="1" arrows="0" fold="1" page="1" pageScale="1" pageWidth="827" pageHeight="1169" math="0" shadow="0">
      <root>
        <mxCell id="0" />
        <mxCell id="1" parent="0" />
        <mxCell id="nm6u6vhjv2dIqWkP665h-65" value="" style="rounded=0;whiteSpace=wrap;html=1;fillColor=#dae8fc;strokeColor=#6c8ebf;" vertex="1" parent="1">
          <mxGeometry x="180" y="560" width="160" height="400" as="geometry" />
        </mxCell>
        <mxCell id="nm6u6vhjv2dIqWkP665h-72" value="" style="rounded=0;whiteSpace=wrap;html=1;fillColor=#dae8fc;strokeColor=#6c8ebf;" vertex="1" parent="1">
          <mxGeometry x="580" y="560" width="160" height="400" as="geometry" />
        </mxCell>
        <mxCell id="nm6u6vhjv2dIqWkP665h-68" value="" style="group;fillColor=#dae8fc;strokeColor=#6c8ebf;" vertex="1" connectable="0" parent="1">
          <mxGeometry x="380" y="560" width="160" height="400" as="geometry" />
        </mxCell>
        <mxCell id="nm6u6vhjv2dIqWkP665h-88" value="&lt;u&gt;Starsbourg&lt;/u&gt;" style="text;html=1;align=center;verticalAlign=middle;resizable=0;points=[];autosize=1;strokeColor=none;fillColor=none;" vertex="1" parent="nm6u6vhjv2dIqWkP665h-68">
          <mxGeometry x="-7" y="-4" width="80" height="30" as="geometry" />
        </mxCell>
        <mxCell id="nm6u6vhjv2dIqWkP665h-53" style="edgeStyle=orthogonalEdgeStyle;rounded=0;orthogonalLoop=1;jettySize=auto;html=1;exitX=0;exitY=0.5;exitDx=0;exitDy=0;entryX=0.75;entryY=0;entryDx=0;entryDy=0;startArrow=classic;startFill=1;dashed=1;dashPattern=1 2;" edge="1" parent="1" source="nm6u6vhjv2dIqWkP665h-45" target="nm6u6vhjv2dIqWkP665h-47">
          <mxGeometry relative="1" as="geometry">
            <Array as="points">
              <mxPoint x="290" y="650" />
            </Array>
          </mxGeometry>
        </mxCell>
        <mxCell id="nm6u6vhjv2dIqWkP665h-54" style="edgeStyle=orthogonalEdgeStyle;rounded=0;orthogonalLoop=1;jettySize=auto;html=1;exitX=1;exitY=0.5;exitDx=0;exitDy=0;entryX=0.25;entryY=0;entryDx=0;entryDy=0;startArrow=classic;startFill=1;dashed=1;dashPattern=1 2;" edge="1" parent="1" source="nm6u6vhjv2dIqWkP665h-45" target="nm6u6vhjv2dIqWkP665h-49">
          <mxGeometry relative="1" as="geometry" />
        </mxCell>
        <mxCell id="nm6u6vhjv2dIqWkP665h-55" style="edgeStyle=orthogonalEdgeStyle;rounded=0;orthogonalLoop=1;jettySize=auto;html=1;exitX=0.5;exitY=1;exitDx=0;exitDy=0;entryX=0.5;entryY=0;entryDx=0;entryDy=0;dashed=1;dashPattern=1 2;" edge="1" parent="1" source="nm6u6vhjv2dIqWkP665h-45" target="nm6u6vhjv2dIqWkP665h-51">
          <mxGeometry relative="1" as="geometry" />
        </mxCell>
        <mxCell id="nm6u6vhjv2dIqWkP665h-56" style="rounded=0;orthogonalLoop=1;jettySize=auto;html=1;exitX=0.5;exitY=1;exitDx=0;exitDy=0;entryX=0.75;entryY=0;entryDx=0;entryDy=0;endArrow=none;endFill=0;dashed=1;dashPattern=1 2;" edge="1" parent="1" source="nm6u6vhjv2dIqWkP665h-45" target="nm6u6vhjv2dIqWkP665h-50">
          <mxGeometry relative="1" as="geometry" />
        </mxCell>
        <mxCell id="nm6u6vhjv2dIqWkP665h-57" style="rounded=0;orthogonalLoop=1;jettySize=auto;html=1;exitX=0.5;exitY=1;exitDx=0;exitDy=0;entryX=0.25;entryY=0;entryDx=0;entryDy=0;endArrow=none;endFill=0;dashed=1;dashPattern=1 2;" edge="1" parent="1" source="nm6u6vhjv2dIqWkP665h-45" target="nm6u6vhjv2dIqWkP665h-52">
          <mxGeometry relative="1" as="geometry" />
        </mxCell>
        <mxCell id="nm6u6vhjv2dIqWkP665h-62" style="rounded=0;orthogonalLoop=1;jettySize=auto;html=1;exitX=0.75;exitY=1;exitDx=0;exitDy=0;entryX=0.5;entryY=0;entryDx=0;entryDy=0;dashed=1;dashPattern=1 2;" edge="1" parent="1" source="nm6u6vhjv2dIqWkP665h-47" target="nm6u6vhjv2dIqWkP665h-51">
          <mxGeometry relative="1" as="geometry" />
        </mxCell>
        <mxCell id="nm6u6vhjv2dIqWkP665h-63" style="rounded=0;orthogonalLoop=1;jettySize=auto;html=1;exitX=0.75;exitY=1;exitDx=0;exitDy=0;entryX=0.25;entryY=0;entryDx=0;entryDy=0;dashed=1;dashPattern=1 2;" edge="1" parent="1" source="nm6u6vhjv2dIqWkP665h-47" target="nm6u6vhjv2dIqWkP665h-52">
          <mxGeometry relative="1" as="geometry" />
        </mxCell>
        <mxCell id="nm6u6vhjv2dIqWkP665h-58" style="edgeStyle=orthogonalEdgeStyle;rounded=0;orthogonalLoop=1;jettySize=auto;html=1;exitX=0.25;exitY=1;exitDx=0;exitDy=0;entryX=0.25;entryY=0;entryDx=0;entryDy=0;dashed=1;dashPattern=1 2;" edge="1" parent="1" source="nm6u6vhjv2dIqWkP665h-49" target="nm6u6vhjv2dIqWkP665h-52">
          <mxGeometry relative="1" as="geometry" />
        </mxCell>
        <mxCell id="nm6u6vhjv2dIqWkP665h-60" style="rounded=0;orthogonalLoop=1;jettySize=auto;html=1;exitX=0.25;exitY=1;exitDx=0;exitDy=0;entryX=0.5;entryY=0;entryDx=0;entryDy=0;startArrow=none;startFill=0;dashed=1;dashPattern=1 2;" edge="1" parent="1" source="nm6u6vhjv2dIqWkP665h-49" target="nm6u6vhjv2dIqWkP665h-51">
          <mxGeometry relative="1" as="geometry" />
        </mxCell>
        <mxCell id="nm6u6vhjv2dIqWkP665h-61" style="rounded=0;orthogonalLoop=1;jettySize=auto;html=1;exitX=0.25;exitY=1;exitDx=0;exitDy=0;entryX=0.75;entryY=0;entryDx=0;entryDy=0;dashed=1;dashPattern=1 2;" edge="1" parent="1" source="nm6u6vhjv2dIqWkP665h-49" target="nm6u6vhjv2dIqWkP665h-50">
          <mxGeometry relative="1" as="geometry" />
        </mxCell>
        <mxCell id="nm6u6vhjv2dIqWkP665h-90" style="edgeStyle=orthogonalEdgeStyle;rounded=0;orthogonalLoop=1;jettySize=auto;html=1;exitX=0;exitY=0.5;exitDx=0;exitDy=0;entryX=1;entryY=0.5;entryDx=0;entryDy=0;startArrow=classic;startFill=1;dashed=1;dashPattern=1 2;" edge="1" parent="1">
          <mxGeometry relative="1" as="geometry">
            <mxPoint x="600" y="699.57" as="sourcePoint" />
            <mxPoint x="320.0000000000001" y="699.57" as="targetPoint" />
          </mxGeometry>
        </mxCell>
        <mxCell id="nm6u6vhjv2dIqWkP665h-50" value="&lt;div&gt;node04&lt;/div&gt;&lt;div&gt;Worker&lt;br&gt;&lt;/div&gt;" style="rounded=0;whiteSpace=wrap;html=1;fillColor=#d5e8d4;strokeColor=#82b366;" vertex="1" parent="1">
          <mxGeometry x="200" y="870" width="120" height="60" as="geometry" />
        </mxCell>
        <mxCell id="nm6u6vhjv2dIqWkP665h-51" value="&lt;div&gt;node05&lt;/div&gt;&lt;div&gt;Worker&lt;/div&gt;" style="rounded=0;whiteSpace=wrap;html=1;fillColor=#d5e8d4;strokeColor=#82b366;" vertex="1" parent="1">
          <mxGeometry x="400" y="870" width="120" height="60" as="geometry" />
        </mxCell>
        <mxCell id="nm6u6vhjv2dIqWkP665h-52" value="&lt;div&gt;node06&lt;/div&gt;&lt;div&gt;Worker&lt;br&gt;&lt;/div&gt;" style="rounded=0;whiteSpace=wrap;html=1;fillColor=#d5e8d4;strokeColor=#82b366;" vertex="1" parent="1">
          <mxGeometry x="600" y="870" width="120" height="60" as="geometry" />
        </mxCell>
        <mxCell id="nm6u6vhjv2dIqWkP665h-83" style="edgeStyle=orthogonalEdgeStyle;rounded=0;orthogonalLoop=1;jettySize=auto;html=1;exitX=0;exitY=0.5;exitDx=0;exitDy=0;dashed=1;endArrow=none;endFill=0;entryX=0.5;entryY=0;entryDx=0;entryDy=0;" edge="1" parent="1" source="nm6u6vhjv2dIqWkP665h-75" target="nm6u6vhjv2dIqWkP665h-65">
          <mxGeometry relative="1" as="geometry">
            <mxPoint x="290" y="540" as="targetPoint" />
          </mxGeometry>
        </mxCell>
        <mxCell id="nm6u6vhjv2dIqWkP665h-84" style="edgeStyle=orthogonalEdgeStyle;rounded=0;orthogonalLoop=1;jettySize=auto;html=1;exitX=0.5;exitY=1;exitDx=0;exitDy=0;dashed=1;endArrow=none;endFill=0;" edge="1" parent="1" source="nm6u6vhjv2dIqWkP665h-75">
          <mxGeometry relative="1" as="geometry">
            <mxPoint x="460" y="560" as="targetPoint" />
          </mxGeometry>
        </mxCell>
        <mxCell id="nm6u6vhjv2dIqWkP665h-85" style="edgeStyle=orthogonalEdgeStyle;rounded=0;orthogonalLoop=1;jettySize=auto;html=1;exitX=1;exitY=0.5;exitDx=0;exitDy=0;dashed=1;entryX=0.5;entryY=0;entryDx=0;entryDy=0;endArrow=none;endFill=0;" edge="1" parent="1" source="nm6u6vhjv2dIqWkP665h-75" target="nm6u6vhjv2dIqWkP665h-72">
          <mxGeometry relative="1" as="geometry">
            <mxPoint x="660" y="545" as="targetPoint" />
            <Array as="points">
              <mxPoint x="661" y="490" />
            </Array>
          </mxGeometry>
        </mxCell>
        <mxCell id="nm6u6vhjv2dIqWkP665h-75" value="main01&lt;div&gt;LoadBalancer&lt;/div&gt;" style="rounded=0;whiteSpace=wrap;html=1;" vertex="1" parent="1">
          <mxGeometry x="400" y="460" width="120" height="60" as="geometry" />
        </mxCell>
        <mxCell id="nm6u6vhjv2dIqWkP665h-106" style="edgeStyle=orthogonalEdgeStyle;rounded=0;orthogonalLoop=1;jettySize=auto;html=1;exitX=1;exitY=0.3333333333333333;exitDx=0;exitDy=0;exitPerimeter=0;entryX=0;entryY=0.25;entryDx=0;entryDy=0;" edge="1" parent="1" source="nm6u6vhjv2dIqWkP665h-76" target="nm6u6vhjv2dIqWkP665h-79">
          <mxGeometry relative="1" as="geometry" />
        </mxCell>
        <mxCell id="nm6u6vhjv2dIqWkP665h-76" value="User" style="shape=umlActor;verticalLabelPosition=bottom;verticalAlign=top;html=1;outlineConnect=0;" vertex="1" parent="1">
          <mxGeometry x="330" y="370" width="30" height="60" as="geometry" />
        </mxCell>
        <mxCell id="nm6u6vhjv2dIqWkP665h-80" style="edgeStyle=orthogonalEdgeStyle;rounded=0;orthogonalLoop=1;jettySize=auto;html=1;exitX=0.5;exitY=1;exitDx=0;exitDy=0;entryX=0.5;entryY=0;entryDx=0;entryDy=0;" edge="1" parent="1" source="nm6u6vhjv2dIqWkP665h-79" target="nm6u6vhjv2dIqWkP665h-75">
          <mxGeometry relative="1" as="geometry" />
        </mxCell>
        <mxCell id="nm6u6vhjv2dIqWkP665h-79" value="RequÃªte HTTP" style="rounded=0;whiteSpace=wrap;html=1;" vertex="1" parent="1">
          <mxGeometry x="400" y="375" width="120" height="60" as="geometry" />
        </mxCell>
        <mxCell id="nm6u6vhjv2dIqWkP665h-87" value="&lt;div&gt;&lt;u&gt;Francfort&lt;/u&gt;&lt;/div&gt;" style="text;html=1;align=center;verticalAlign=middle;resizable=0;points=[];autosize=1;strokeColor=none;fillColor=none;" vertex="1" parent="1">
          <mxGeometry x="572" y="556" width="70" height="30" as="geometry" />
        </mxCell>
        <mxCell id="nm6u6vhjv2dIqWkP665h-89" value="&lt;u&gt;Gravelines&lt;/u&gt;" style="text;html=1;align=center;verticalAlign=middle;resizable=0;points=[];autosize=1;strokeColor=none;fillColor=none;" vertex="1" parent="1">
          <mxGeometry x="171" y="556" width="80" height="30" as="geometry" />
        </mxCell>
        <mxCell id="nm6u6vhjv2dIqWkP665h-95" value="" style="endArrow=classic;dashed=1;html=1;rounded=0;startArrow=none;startFill=0;endFill=1;dashPattern=1 2;" edge="1" parent="1">
          <mxGeometry width="50" height="50" relative="1" as="geometry">
            <mxPoint x="560" y="411" as="sourcePoint" />
            <mxPoint x="600" y="411" as="targetPoint" />
          </mxGeometry>
        </mxCell>
        <mxCell id="nm6u6vhjv2dIqWkP665h-96" value="surveille" style="text;html=1;align=center;verticalAlign=middle;resizable=0;points=[];autosize=1;strokeColor=none;fillColor=none;" vertex="1" parent="1">
          <mxGeometry x="594" y="397" width="70" height="30" as="geometry" />
        </mxCell>
        <mxCell id="nm6u6vhjv2dIqWkP665h-97" value="" style="whiteSpace=wrap;html=1;fillColor=#dae8fc;strokeColor=#6c8ebf;" vertex="1" parent="1">
          <mxGeometry x="560" y="447" width="40" height="20" as="geometry" />
        </mxCell>
        <mxCell id="nm6u6vhjv2dIqWkP665h-98" value="serveurs" style="text;html=1;align=center;verticalAlign=middle;resizable=0;points=[];autosize=1;strokeColor=none;fillColor=none;" vertex="1" parent="1">
          <mxGeometry x="594" y="442" width="70" height="30" as="geometry" />
        </mxCell>
        <mxCell id="nm6u6vhjv2dIqWkP665h-99" style="rounded=0;orthogonalLoop=1;jettySize=auto;html=1;exitX=0.5;exitY=0;exitDx=0;exitDy=0;entryX=0.25;entryY=0;entryDx=0;entryDy=0;dashed=1;" edge="1" parent="1" source="nm6u6vhjv2dIqWkP665h-65" target="nm6u6vhjv2dIqWkP665h-47">
          <mxGeometry relative="1" as="geometry" />
        </mxCell>
        <mxCell id="nm6u6vhjv2dIqWkP665h-100" style="rounded=0;orthogonalLoop=1;jettySize=auto;html=1;exitX=0.5;exitY=0;exitDx=0;exitDy=0;entryX=0.5;entryY=0;entryDx=0;entryDy=0;dashed=1;" edge="1" parent="1" source="nm6u6vhjv2dIqWkP665h-65" target="nm6u6vhjv2dIqWkP665h-50">
          <mxGeometry relative="1" as="geometry" />
        </mxCell>
        <mxCell id="nm6u6vhjv2dIqWkP665h-103" style="edgeStyle=orthogonalEdgeStyle;rounded=0;orthogonalLoop=1;jettySize=auto;html=1;exitX=0.75;exitY=1;exitDx=0;exitDy=0;entryX=0.75;entryY=0;entryDx=0;entryDy=0;dashed=1;dashPattern=1 2;" edge="1" parent="1" source="nm6u6vhjv2dIqWkP665h-47" target="nm6u6vhjv2dIqWkP665h-50">
          <mxGeometry relative="1" as="geometry" />
        </mxCell>
        <mxCell id="nm6u6vhjv2dIqWkP665h-47" value="&lt;div&gt;node01&lt;/div&gt;&lt;div&gt;Manager&lt;/div&gt;" style="rounded=0;whiteSpace=wrap;html=1;fillColor=#ffe6cc;strokeColor=#d79b00;" vertex="1" parent="1">
          <mxGeometry x="200" y="670" width="120" height="60" as="geometry" />
        </mxCell>
        <mxCell id="nm6u6vhjv2dIqWkP665h-104" style="rounded=0;orthogonalLoop=1;jettySize=auto;html=1;exitX=0.5;exitY=0;exitDx=0;exitDy=0;entryX=0.75;entryY=0;entryDx=0;entryDy=0;dashed=1;" edge="1" parent="1" source="nm6u6vhjv2dIqWkP665h-72" target="nm6u6vhjv2dIqWkP665h-49">
          <mxGeometry relative="1" as="geometry" />
        </mxCell>
        <mxCell id="nm6u6vhjv2dIqWkP665h-105" style="rounded=0;orthogonalLoop=1;jettySize=auto;html=1;exitX=0.5;exitY=0;exitDx=0;exitDy=0;entryX=0.5;entryY=0;entryDx=0;entryDy=0;dashed=1;" edge="1" parent="1" source="nm6u6vhjv2dIqWkP665h-72" target="nm6u6vhjv2dIqWkP665h-52">
          <mxGeometry relative="1" as="geometry" />
        </mxCell>
        <mxCell id="nm6u6vhjv2dIqWkP665h-49" value="&lt;div&gt;node03&lt;/div&gt;&lt;div&gt;Manager&lt;/div&gt;" style="rounded=0;whiteSpace=wrap;html=1;fillColor=#ffe6cc;strokeColor=#d79b00;" vertex="1" parent="1">
          <mxGeometry x="600" y="670" width="120" height="60" as="geometry" />
        </mxCell>
        <mxCell id="nm6u6vhjv2dIqWkP665h-116" style="rounded=0;orthogonalLoop=1;jettySize=auto;html=1;exitX=0.5;exitY=1;exitDx=0;exitDy=0;entryX=0.75;entryY=0;entryDx=0;entryDy=0;dashed=1;" edge="1" parent="1" target="nm6u6vhjv2dIqWkP665h-45">
          <mxGeometry relative="1" as="geometry">
            <mxPoint x="460" y="560" as="sourcePoint" />
          </mxGeometry>
        </mxCell>
        <mxCell id="nm6u6vhjv2dIqWkP665h-117" style="rounded=0;orthogonalLoop=1;jettySize=auto;html=1;exitX=0.5;exitY=1;exitDx=0;exitDy=0;entryX=0.75;entryY=0;entryDx=0;entryDy=0;dashed=1;" edge="1" parent="1" target="nm6u6vhjv2dIqWkP665h-51">
          <mxGeometry relative="1" as="geometry">
            <mxPoint x="460" y="560" as="sourcePoint" />
          </mxGeometry>
        </mxCell>
        <mxCell id="nm6u6vhjv2dIqWkP665h-112" value="" style="endArrow=classic;html=1;rounded=0;startArrow=none;startFill=0;endFill=1;dashed=1;" edge="1" parent="1">
          <mxGeometry width="50" height="50" relative="1" as="geometry">
            <mxPoint x="560" y="434" as="sourcePoint" />
            <mxPoint x="600" y="434" as="targetPoint" />
          </mxGeometry>
        </mxCell>
        <mxCell id="nm6u6vhjv2dIqWkP665h-113" value="distribue" style="text;html=1;align=center;verticalAlign=middle;resizable=0;points=[];autosize=1;strokeColor=none;fillColor=none;" vertex="1" parent="1">
          <mxGeometry x="594" y="420" width="70" height="30" as="geometry" />
        </mxCell>
        <mxCell id="nm6u6vhjv2dIqWkP665h-45" value="&lt;div&gt;node02&lt;/div&gt;&lt;div&gt;Leader&lt;/div&gt;" style="rounded=0;whiteSpace=wrap;html=1;fillColor=#f8cecc;strokeColor=#b85450;" vertex="1" parent="1">
          <mxGeometry x="400" y="620" width="120" height="60" as="geometry" />
        </mxCell>
      </root>
    </mxGraphModel>
  </diagram>
</mxfile>
